<svg version="1" class="brunchline-line-2" xmlns="http://www.w3.org/2000/svg">
  <!-- viewBox="0 0 1920 1080" -->
  <path class="p1" d="M2877 1315c1 35-12 70-38 104-32 42-87 87-168 136-111 65-262 131-372 180l-6 2c-53 22-102 43-137 55-36 12-57 15-68 10s-13-18-14-36c-4-32-8-81-82-125-56-32-112-43-159-49l-55-5c-36-4-73-7-115-15a597 597 0 0 1-272-122 512 512 0 0 1-142-194c-19-42-33-84-46-125-32-96-59-179-141-225l-37-17c-14-5-26-10-36-17-11-8-18-19-22-35-2-7-3-16-3-25-2-47 24-112 51-179l3-9c35-86 70-175 79-245a700 700 0 0 0 6-138c-3-40-13-81-29-125l-25-62c-17-40-32-75-33-104l2-20c5-22 24-39 57-51 34-13 83-20 146-22 119-3 302 15 444 64 43 14 81 31 114 49a340 340 0 0 1 166 208l22 84c22 89 46 189 118 291 25 34 75 103 171 185 75 66 178 140 287 217l60 44c57 41 121 90 173 140 53 52 84 98 95 141 4 12 5 23 6 35m3 0c0-12-2-24-5-36-26-94-143-190-270-283-129-92-258-182-347-260-91-78-141-144-170-184-95-135-106-265-140-375-17-55-42-105-86-149-44-43-108-81-196-110-139-48-322-67-445-64-128 4-196 30-206 75-2 7-2 14-2 21 1 44 34 101 58 167a468 468 0 0 1 23 261c-9 71-44 160-79 244-28 72-56 140-55 191l4 25c14 50 53 46 97 71 115 64 122 208 185 348 30 70 75 139 143 196 68 56 161 101 273 122 64 12 117 14 171 21 53 6 106 18 158 48 113 68 59 145 96 161 24 12 93-16 207-65 110-48 266-116 379-182 73-45 134-91 169-137 27-35 39-71 38-106z"/>
  <path class="p2" d="M2857 1310c0 28-8 57-25 84-29 50-88 100-179 153a3686 3686 0 0 1-500 230c-34 11-52 14-62 9-9-4-9-14-10-33l-2-24c-3-26-14-66-75-102-73-43-148-50-221-57h-2c-35-3-71-6-111-14-53-10-101-25-146-45a507 507 0 0 1-256-259c-20-44-34-89-48-132-31-94-60-184-141-231-14-8-27-13-38-17l-2-1c-25-10-44-18-51-49-2-7-3-14-3-22-2-49 26-122 54-192 26-63 58-154 68-228a525 525 0 0 0-12-209c-10-37-25-73-39-105-10-23-19-45-25-65-5-14-7-26-7-37-1-18 4-32 15-44 20-21 61-35 122-42a1283 1283 0 0 1 500 58c39 14 74 29 105 45a331 331 0 0 1 171 207l23 88c21 86 45 183 117 286 33 47 72 91 117 134 57 56 139 122 235 191l54 38c77 55 150 107 211 156 67 56 109 100 133 141 19 29 29 59 30 88m3 0c-1-29-11-59-30-90-59-100-223-210-399-336-96-69-177-134-235-191-59-56-95-103-117-134-96-137-105-263-140-372-18-60-46-110-91-152s-108-76-186-102c-155-52-370-73-501-58-62 6-104 21-124 43a61 61 0 0 0-17 46c1 11 3 24 8 38 15 47 46 106 64 170a453 453 0 0 1 11 208c-8 66-36 149-67 226-31 79-56 146-54 194 0 8 1 16 3 22 8 33 28 41 53 52 12 4 25 10 39 18 116 67 123 220 188 360a510 510 0 0 0 257 261c47 21 95 36 148 46 40 8 76 11 111 15 75 6 148 13 221 56 57 34 71 70 74 100 4 30-2 51 14 59 11 5 30 2 64-9a3761 3761 0 0 0 501-230c80-48 147-99 180-154 17-28 26-57 25-86z"/>
  <path class="p3" d="M2817 1301c1 30-8 59-27 87-30 47-87 94-174 144a3625 3625 0 0 1-470 214c-27 9-42 12-49 8-3-1-4-3-4-8l1-15 2-24v-7c-1-40-24-73-70-101-76-46-159-54-233-60l-2-1c-33-3-68-6-107-13-49-10-94-24-136-43a487 487 0 0 1-244-250c-22-46-37-94-52-140-31-96-60-187-141-237l-38-19h-1c-23-10-38-17-44-45l-2-19c-2-43 19-104 46-180 29-80 48-154 52-209a520 520 0 0 0-16-191c-10-35-24-70-37-100-10-23-19-44-25-62-5-15-7-27-7-38-1-16 4-30 14-41 19-20 58-34 117-41a1240 1240 0 0 1 481 56c76 25 136 58 179 97 40 37 69 83 89 144 9 29 17 58 24 89 22 85 45 180 116 280 34 47 72 91 118 134 56 54 137 119 234 188l36 26c80 56 154 109 215 159 68 56 110 101 132 142 15 26 22 52 23 76m3 0c-1-25-8-51-23-78-52-97-210-204-384-328-95-67-176-132-234-188-59-55-95-102-117-133-96-136-105-261-140-368-19-57-46-106-90-146s-104-72-180-97c-148-50-355-70-482-56-59 6-100 20-119 42a58 58 0 0 0-16 43c1 12 3 24 8 38 15 46 45 102 62 163a463 463 0 0 1 16 189c-5 60-25 137-52 209-26 73-48 137-46 181l2 20c6 29 23 36 46 46 11 5 24 11 39 20 117 72 123 230 191 376a505 505 0 0 0 246 251c43 20 88 34 137 43 38 7 73 10 107 13 75 7 158 15 234 60 55 34 67 69 68 99v7c-1 18-4 31-3 39 0 5 1 9 5 11 8 4 24 1 52-8a3681 3681 0 0 0 470-214c77-45 142-93 176-145 19-28 28-58 27-89z"/>
  <path class="p4" d="M2799 1297c1 30-9 61-29 90-30 45-87 91-172 139a3618 3618 0 0 1-454 207c-25 8-40 10-46 7-2-1-3-3-3-6l2-14a293 293 0 0 0 5-40c-1-36-22-67-66-94-77-46-162-54-237-61h-3c-33-4-68-7-105-14-48-9-91-22-132-41a467 467 0 0 1-240-246c-22-49-38-98-54-146-30-97-60-188-139-239-13-8-26-14-37-19h-1c-22-10-36-17-42-44-2-6-2-12-2-18-2-43 20-107 42-175 26-75 42-146 45-200 1-20 2-39 1-59-1-42-7-83-19-121-10-35-24-68-37-98-10-22-19-42-25-61-4-14-7-27-7-37-1-17 4-31 14-42 19-21 58-35 117-41a1226 1226 0 0 1 473 55c74 24 133 56 175 95 41 36 69 82 89 142 10 29 17 58 25 90 21 83 45 178 116 276 33 47 71 90 117 133a2188 2188 0 0 0 292 229c65 45 125 89 176 130 71 58 117 108 141 152 13 24 20 48 20 71m1 0c0-23-7-47-20-72-25-47-75-98-141-152s-149-111-234-172c-95-67-176-131-234-187-59-55-95-102-117-132-97-136-105-261-141-366-18-57-45-104-89-143-43-40-103-71-176-95-146-49-349-69-473-55-58 6-98 20-117 41a57 57 0 0 0-15 42c0 12 3 25 8 38 14 45 44 100 61 159a462 462 0 0 1 18 180c-3 57-21 131-44 200-24 71-45 132-43 174 0 7 0 13 2 19 6 27 20 34 42 44 12 5 25 11 39 20 117 76 123 236 192 384a474 474 0 0 0 241 247c41 19 85 32 132 41 37 7 72 10 105 13 77 8 162 15 240 62 51 32 65 65 65 93v15c-3 21-7 32-7 39 0 3 1 5 4 7 6 3 21 1 46-8 28-9 66-25 116-46 100-43 238-103 339-160 75-43 138-90 172-140 20-28 30-59 29-90z"/>
  <path class="p5" d="M2779 1293c1 31-9 61-30 91-31 44-86 88-169 135a3560 3560 0 0 1-439 198c-23 8-35 10-40 7-2-1-2-2-2-3l3-12 7-25 2-23c-1-34-22-63-63-89-79-48-166-56-244-63h-2c-32-3-67-7-104-14-46-8-87-21-126-39a455 455 0 0 1-235-242c-24-50-40-101-56-151-31-97-60-188-138-241-14-9-26-14-37-20h-1c-21-10-34-16-39-41l-2-18c-1-39 16-95 36-160l2-7a759 759 0 0 0 38-237c-1-44-8-86-20-125-10-34-24-67-37-96-9-21-18-41-24-59-5-15-7-27-7-38-1-16 4-30 14-40 18-21 56-34 114-41a1200 1200 0 0 1 463 54c73 24 131 55 172 92 41 36 69 81 89 140 10 29 17 59 25 91 22 82 45 175 115 273 34 47 72 90 118 132 56 54 135 116 233 186l52 37c66 47 128 91 179 133 70 57 114 106 136 150 11 22 17 44 17 65m1 0c0-21-6-43-17-66-24-47-71-97-136-150s-147-110-231-170c-94-67-175-131-234-186s-95-101-117-132c-96-135-104-259-140-364-19-55-46-101-89-140-43-38-101-69-173-93-143-47-342-67-463-53-58 6-97 20-115 41a56 56 0 0 0-14 41c0 11 3 24 7 38 15 43 44 97 61 155a468 468 0 0 1 19 170c-1 55-16 125-37 191-21 68-40 127-38 168 0 6 0 12 2 17 5 26 18 32 39 43 11 5 24 11 38 20 118 78 123 241 194 392a457 457 0 0 0 235 242c40 18 82 31 127 39 36 7 71 10 104 13 79 8 166 15 245 64 48 30 62 61 63 88l-2 22c-5 22-10 32-10 38l2 4c6 3 19 0 41-7 26-9 62-24 110-44 97-41 231-99 329-155 73-41 135-86 170-134 20-30 31-60 30-92z"/>
</svg>
