<svg version="1" class="brunchline-line-2" xmlns="http://www.w3.org/2000/svg" viewBox="0 0 2106 2039" height="2106" width="2039">
  <!-- viewBox="0 0 2106 2039" -->
  <path class="p1" d="M139 102c24 0 54 7 98 25l39 16c80 36 179 79 283 97 53 11 111 16 182 16 53 0 107-3 159-6l30-1c61-5 131-9 197-9 50 0 92 3 130 8 88 10 159 36 210 58 72 31 141 72 205 123a1108 1108 0 0 1 286 357c31 63 52 123 63 179a400 400 0 0 1-30 246c-28 74-74 168-141 297-54 99-123 224-193 317-35 46-69 83-101 107-34 27-67 40-97 40l-10 1c-45 0-101-28-158-77a617 617 0 0 1-141-179c-24-46-31-76-39-111l-14-57c-54-177-185-255-304-314l-45-23c-56-27-114-56-165-95a455 455 0 0 1-133-157 794 794 0 0 1-52-125c-20-48-44-92-84-149-29-43-58-81-83-115A826 826 0 0 1 89 330c-15-47-23-92-22-130 1-35 9-62 23-78 11-14 28-20 49-20m0-3c-21 0-38 6-51 21-30 32-34 111-1 211 42 129 124 210 225 357 44 64 66 107 83 149 17 40 29 80 52 124 82 160 216 211 344 277 129 64 251 143 302 312 20 65 18 100 55 168 72 136 203 258 301 258l10-1c65 0 133-59 200-149a3427 3427 0 0 0 335-614c32-85 46-151 29-248a907 907 0 0 0-182-367 956 956 0 0 0-373-294 766 766 0 0 0-341-66c-62 0-128 4-197 9-62 3-126 7-189 7-61 0-122-4-181-16-121-20-234-75-322-113-37-15-71-25-99-25z"/>
  <path class="p2" d="M152 111c24 0 54 7 95 24l59 27c33 15 70 32 109 47a885 885 0 0 0 341 61c59 0 121-4 185-8a5454 5454 0 0 1 175-7c70 0 135 6 191 17a890 890 0 0 1 356 171 1074 1074 0 0 1 285 359c29 60 47 114 57 165 9 50 9 95 1 142-8 43-23 88-49 148a5123 5123 0 0 1-188 367c-60 105-112 182-158 235-27 31-54 55-79 71a159 159 0 0 1-83 27c-43 0-93-22-142-63a619 619 0 0 1-146-182c-23-44-30-73-38-109-3-15-7-34-14-56-55-184-191-264-314-325l-35-18c-51-25-103-51-150-83a463 463 0 0 1-181-245c-23-61-44-111-104-199-29-41-56-80-81-113-20-28-39-53-55-78-38-55-67-104-87-163-14-43-21-84-20-119 1-34 8-59 22-75 11-12 27-18 48-18m0-3c-21 0-38 5-50 19-15 17-22 43-23 77-1 35 6 77 20 120 20 59 48 107 87 164 38 55 85 116 136 191 63 90 83 141 104 198 10 25 20 51 35 79a439 439 0 0 0 148 168c58 40 123 69 185 101 130 64 259 145 312 323 7 21 11 40 14 56 8 36 15 65 38 110 34 64 86 132 147 182a241 241 0 0 0 153 64c49-3 100-37 155-100 53-59 108-145 159-235a5205 5205 0 0 0 188-367c48-110 67-190 48-291-9-51-28-105-57-166-29-60-69-126-121-193a946 946 0 0 0-370-291c-34-14-87-35-152-48a968 968 0 0 0-232-17c-113 4-220 14-320 14a969 969 0 0 1-339-60c-66-25-122-54-169-74-36-14-69-24-96-24z"/>
  <path class="p3" d="M175 124v3c23 0 53 8 91 25l59 28c30 15 63 32 99 46a850 850 0 0 0 361 70c55 0 111-3 171-6l106-4 40-1c71 0 134 6 189 17a867 867 0 0 1 352 168 994 994 0 0 1 332 503c9 47 9 90 1 135-8 41-22 85-48 143a5031 5031 0 0 1-182 357c-57 101-106 175-150 225-26 29-50 51-73 67a148 148 0 0 1-78 26c-38 0-84-20-128-56a546 546 0 0 1-135-167c-20-40-25-65-33-100l-14-59c-58-198-199-281-326-344l-34-17c-50-25-101-50-147-81a440 440 0 0 1-138-156c-14-27-24-53-33-76-22-61-45-115-111-211l-73-106-72-105c-40-63-59-99-73-140-11-35-16-68-16-97 1-31 8-53 20-67 11-11 25-17 43-17v-3m0 0c-18 0-33 5-45 18-13 15-20 38-21 69 0 29 5 63 17 98 14 42 33 79 73 141s90 129 145 210c67 99 89 154 111 211 9 25 19 50 33 76a410 410 0 0 0 139 157c56 39 120 68 181 98 135 67 269 151 324 342 7 23 11 43 15 60 7 35 13 60 33 100 31 60 79 123 135 168 44 36 90 57 130 57l11-1c44-4 91-35 142-93 50-57 102-139 152-226a5026 5026 0 0 0 182-357c46-106 64-183 47-280-18-94-71-212-171-341a928 928 0 0 0-365-286c-34-14-86-34-151-46a979 979 0 0 0-230-16c-97 3-190 10-277 10a844 844 0 0 1-360-69c-61-26-114-55-158-75-34-15-66-25-92-25z"/>
  <path class="p4" d="M187 133c23 0 52 9 89 26l52 25c81 41 182 92 304 111 48 8 101 12 168 12 53 0 107-2 164-5l92-3 39-1c71 0 134 6 189 16a862 862 0 0 1 352 167c58 47 112 102 160 163a799 799 0 0 1 166 331c9 47 9 89 1 133-7 41-22 84-47 141a4970 4970 0 0 1-179 352c-56 100-104 172-148 221-24 28-47 49-70 64a143 143 0 0 1-76 26c-36 0-80-18-122-52-51-41-98-100-129-161-19-37-24-60-31-95-4-17-8-37-15-61-58-204-201-289-331-352l-33-17c-50-24-101-49-146-81a429 429 0 0 1-166-225c-23-62-47-117-115-218l-67-98c-29-43-58-84-82-123-38-61-55-93-66-129-10-30-15-60-14-86 0-29 7-51 19-64 10-11 24-17 42-17m0-1c-17 0-32 5-42 17-13 14-20 36-20 65-1 26 4 56 14 87 11 34 26 65 66 129 42 65 93 137 149 221 70 103 93 159 115 217 9 25 19 49 32 75a401 401 0 0 0 134 151c55 38 119 67 180 98 137 67 273 153 330 351 6 23 11 43 14 61 8 35 12 58 31 96 30 57 76 117 130 161 42 33 85 52 123 52h12c41-5 86-35 135-90 49-56 100-137 148-222a4934 4934 0 0 0 179-351c46-105 64-181 46-275-17-92-69-206-166-332a917 917 0 0 0-363-283c-34-14-85-34-150-47a988 988 0 0 0-228-15c-90 3-175 8-256 8-59 0-115-3-168-12-150-23-271-97-355-136-34-15-65-26-90-26z"/>
  <path class="p5" d="M199 142c22 0 50 8 87 25l52 27c78 41 175 92 292 112 52 10 111 15 186 15 51 0 102-2 157-5a8251 8251 0 0 1 115-3c71 0 134 5 188 16 49 9 98 24 149 46a908 908 0 0 1 360 280 796 796 0 0 1 162 323c9 45 9 87 1 130-8 40-22 82-46 139a4777 4777 0 0 1-176 347c-55 97-103 167-145 215-23 27-45 48-67 62a139 139 0 0 1-73 26c-35 0-76-18-115-49-49-39-95-95-124-153-18-35-22-56-29-91-4-17-8-38-15-63-59-210-205-297-336-361l-32-16c-50-24-101-49-145-80a417 417 0 0 1-130-146c-13-25-22-50-31-72-24-63-47-119-118-224l-59-89c-35-51-67-99-95-143-40-66-51-91-60-117-8-26-12-52-12-75 1-28 7-48 19-61 10-10 23-15 40-15m0-1c-16 0-30 4-40 15-13 14-19 35-19 62-1 23 3 49 12 75 8 26 19 51 60 117 42 69 95 144 153 232 72 107 96 164 118 224 9 24 19 48 32 73a382 382 0 0 0 129 146c54 37 117 66 177 96 140 68 279 156 336 361 7 24 12 44 15 62 7 35 12 56 29 91 28 55 72 112 124 154 40 31 81 49 116 49l13-1c39-5 82-34 128-87 48-55 98-133 145-217a4774 4774 0 0 0 176-346c45-103 63-177 45-269-16-90-67-200-162-324a910 910 0 0 0-361-280c-33-14-84-34-149-46a1000 1000 0 0 0-227-15c-81 2-159 7-233 7-65 0-128-4-186-16-146-25-263-99-344-138-32-15-62-25-87-25z"/>
</svg>
